<svg width="39" height="38" viewBox="0 0 39 38" fill="none" xmlns="http://www.w3.org/2000/svg"><path d="M3.5 21.9792C3.5 15.0698 9.10118 9.46863 16.0106 9.46863H25.4925C32.4019 9.46863 38.0031 15.0698 38.0031 21.9792C38.0031 28.8886 32.4019 34.4898 25.4925 34.4898H16.0106C9.10118 34.4898 3.5 28.8886 3.5 21.9792Z" fill="#3868C7"></path><path fill-rule="evenodd" clip-rule="evenodd" d="M3.50764 0.000427093C5.44485 0.000427008 7.01528 1.57085 7.01528 3.50806L7.01528 21.9816L3.50764 21.9816L9.60829e-07 21.9816L1.87396e-07 3.50807C1.02717e-07 1.57085 1.57042 0.000427177 3.50764 0.000427093Z" fill="#76C451"></path><path d="M19.8852 21.9819C19.8852 23.9192 18.3316 25.4896 16.4152 25.4896C14.4988 25.4896 12.9453 23.9192 12.9453 21.9819C12.9453 20.0447 14.4988 18.4743 16.4152 18.4743C18.3316 18.4743 19.8852 20.0447 19.8852 21.9819Z" fill="white"></path><path d="M30.8709 21.9819C30.8709 23.9192 29.3174 25.4896 27.401 25.4896C25.4846 25.4896 23.931 23.9192 23.931 21.9819C23.931 20.0447 25.4846 18.4743 27.401 18.4743C29.3174 18.4743 30.8709 20.0447 30.8709 21.9819Z" fill="white"></path><path fill-rule="evenodd" clip-rule="evenodd" d="M0 21.9813C0 13.1372 7.16495 5.96313 16.0089 5.96313H17.889C19.8262 5.96313 21.3966 7.53356 21.3966 9.47077C21.3966 11.408 19.8262 12.9784 17.889 12.9784H16.0089C11.0443 12.9784 7.01528 17.0067 7.01528 21.9813C7.01528 26.956 11.0443 30.9843 16.0089 30.9843H25.0991C27.0363 30.9843 28.6067 32.5547 28.6067 34.4919C28.6067 36.4291 27.0363 37.9996 25.0991 37.9996H16.0089C7.16495 37.9996 0 30.8255 0 21.9813Z" fill="#76C451"></path></svg>