<svg width="183" height="40" viewBox="0 0 183 40" fill="none" xmlns="http://www.w3.org/2000/svg"><path d="M2.91016 22.4798C2.91016 16.7287 7.57235 12.0665 13.3234 12.0665H21.2158C26.9669 12.0665 31.6291 16.7287 31.6291 22.4798C31.6291 28.2309 26.9669 32.8931 21.2158 32.8931H13.3234C7.57234 32.8931 2.91016 28.2309 2.91016 22.4798Z" fill="#3868C7"></path><path fill-rule="evenodd" clip-rule="evenodd" d="M2.91961 4.18561C4.53207 4.18561 5.83923 5.49276 5.83923 7.10522L5.83923 22.4818L2.91961 22.4818L7.99754e-07 22.4818L1.5598e-07 7.10522C8.54976e-08 5.49276 1.30716 4.18561 2.91961 4.18561Z" fill="#76C451"></path><path d="M16.5499 22.4821C16.5499 24.0946 15.2568 25.4017 13.6617 25.4017C12.0665 25.4017 10.7734 24.0946 10.7734 22.4821C10.7734 20.8697 12.0665 19.5625 13.6617 19.5625C15.2568 19.5625 16.5499 20.8697 16.5499 22.4821Z" fill="white"></path><path d="M25.6939 22.4821C25.6939 24.0946 24.4008 25.4017 22.8057 25.4017C21.2106 25.4017 19.9175 24.0946 19.9175 22.4821C19.9175 20.8697 21.2106 19.5625 22.8057 19.5625C24.4008 19.5625 25.6939 20.8697 25.6939 22.4821Z" fill="white"></path><path fill-rule="evenodd" clip-rule="evenodd" d="M0 22.4816C0 15.1201 5.96381 9.14868 13.3251 9.14868H14.89C16.5025 9.14868 17.8096 10.4558 17.8096 12.0683C17.8096 13.6808 16.5025 14.9879 14.89 14.9879H13.3251C9.19283 14.9879 5.83922 18.3409 5.83922 22.4816C5.83922 26.6223 9.19283 29.9753 13.3251 29.9753H20.8914C22.5039 29.9753 23.811 31.2824 23.811 32.8949C23.811 34.5073 22.5039 35.8145 20.8914 35.8145H13.3251C5.96381 35.8145 0 29.8431 0 22.4816Z" fill="#76C451"></path><path d="M49.9054 16.5208C51.0028 16.5208 51.9978 16.7844 52.8904 17.3115C53.7976 17.8236 54.5073 18.5541 55.0194 19.503C55.5315 20.4368 55.7876 21.5288 55.7876 22.7789C55.7876 24.0291 55.5315 25.1286 55.0194 26.0775C54.5073 27.0113 53.7976 27.7418 52.8904 28.2689C51.9978 28.781 51.0028 29.0371 49.9054 29.0371C48.2812 29.0371 47.0448 28.5099 46.1961 27.4556V28.8564H42.9258V12.0927H46.3497V17.9893C47.2131 17.0103 48.3983 16.5208 49.9054 16.5208ZM49.3128 26.1452C50.1907 26.1452 50.9077 25.844 51.4638 25.2415C52.0344 24.624 52.3197 23.8031 52.3197 22.7789C52.3197 21.7548 52.0344 20.9414 51.4638 20.3389C50.9077 19.7214 50.1907 19.4127 49.3128 19.4127C48.4349 19.4127 47.7106 19.7214 47.1399 20.3389C46.5839 20.9414 46.3059 21.7548 46.3059 22.7789C46.3059 23.8031 46.5839 24.624 47.1399 25.2415C47.7106 25.844 48.4349 26.1452 49.3128 26.1452Z" fill="#2B3238"></path><path d="M63.6985 29.0371C62.4548 29.0371 61.3354 28.7735 60.3404 28.2464C59.36 27.7041 58.5918 26.9586 58.0358 26.0097C57.4798 25.0608 57.2017 23.9839 57.2017 22.7789C57.2017 21.574 57.4798 20.4971 58.0358 19.5482C58.5918 18.5993 59.36 17.8613 60.3404 17.3341C61.3354 16.7919 62.4548 16.5208 63.6985 16.5208C64.9423 16.5208 66.0543 16.7919 67.0347 17.3341C68.0151 17.8613 68.7832 18.5993 69.3393 19.5482C69.8953 20.4971 70.1733 21.574 70.1733 22.7789C70.1733 23.9839 69.8953 25.0608 69.3393 26.0097C68.7832 26.9586 68.0151 27.7041 67.0347 28.2464C66.0543 28.7735 64.9423 29.0371 63.6985 29.0371ZM63.6985 26.1452C64.5764 26.1452 65.2934 25.844 65.8495 25.2415C66.4201 24.624 66.7055 23.8031 66.7055 22.7789C66.7055 21.7548 66.4201 20.9414 65.8495 20.3389C65.2934 19.7214 64.5764 19.4127 63.6985 19.4127C62.8206 19.4127 62.0963 19.7214 61.5256 20.3389C60.9549 20.9414 60.6696 21.7548 60.6696 22.7789C60.6696 23.8031 60.9549 24.624 61.5256 25.2415C62.0963 25.844 62.8206 26.1452 63.6985 26.1452Z" fill="#2B3238"></path><path d="M79.5733 28.2689C79.2367 28.525 78.8197 28.7208 78.3222 28.8564C77.8394 28.9768 77.3345 29.0371 76.8078 29.0371C75.3884 29.0371 74.2983 28.6681 73.5374 27.9301C72.7766 27.192 72.3961 26.1076 72.3961 24.6767V14.013H75.8201V16.9727H78.7392V19.6838H75.8201V24.6315C75.8201 25.1436 75.9445 25.5428 76.1932 25.8289C76.442 26.1001 76.8005 26.2356 77.2687 26.2356C77.7955 26.2356 78.2637 26.085 78.6734 25.7838L79.5733 28.2689Z" fill="#2B3238"></path><path d="M86.8494 29.0371C85.591 29.0371 84.457 28.7735 83.4474 28.2464C82.4524 27.7041 81.6695 26.9586 81.0989 26.0097C80.5429 25.0608 80.2648 23.9839 80.2648 22.7789C80.2648 21.574 80.5429 20.4971 81.0989 19.5482C81.6695 18.5993 82.4524 17.8613 83.4474 17.3341C84.457 16.7919 85.591 16.5208 86.8494 16.5208C88.0931 16.5208 89.1759 16.7919 90.0978 17.3341C91.0342 17.8613 91.7146 18.6219 92.139 19.616L89.4832 21.0845C88.8687 19.9699 87.9834 19.4127 86.8274 19.4127C85.9349 19.4127 85.1959 19.7139 84.6106 20.3164C84.0254 20.9188 83.7327 21.7397 83.7327 22.7789C83.7327 23.8182 84.0254 24.6391 84.6106 25.2415C85.1959 25.844 85.9349 26.1452 86.8274 26.1452C87.998 26.1452 88.8833 25.588 89.4832 24.4734L92.139 25.9645C91.7146 26.9285 91.0342 27.6815 90.0978 28.2238C89.1759 28.766 88.0931 29.0371 86.8494 29.0371Z" fill="#2B3238"></path><path d="M99.5792 29.0371C98.3354 29.0371 97.2161 28.7735 96.2211 28.2464C95.2407 27.7041 94.4725 26.9586 93.9165 26.0097C93.3604 25.0608 93.0824 23.9839 93.0824 22.7789C93.0824 21.574 93.3604 20.4971 93.9165 19.5482C94.4725 18.5993 95.2407 17.8613 96.2211 17.3341C97.2161 16.7919 98.3354 16.5208 99.5792 16.5208C100.823 16.5208 101.935 16.7919 102.915 17.3341C103.896 17.8613 104.664 18.5993 105.22 19.5482C105.776 20.4971 106.054 21.574 106.054 22.7789C106.054 23.9839 105.776 25.0608 105.22 26.0097C104.664 26.9586 103.896 27.7041 102.915 28.2464C101.935 28.7735 100.823 29.0371 99.5792 29.0371ZM99.5792 26.1452C100.457 26.1452 101.174 25.844 101.73 25.2415C102.301 24.624 102.586 23.8031 102.586 22.7789C102.586 21.7548 102.301 20.9414 101.73 20.3389C101.174 19.7214 100.457 19.4127 99.5792 19.4127C98.7012 19.4127 97.9769 19.7214 97.4063 20.3389C96.8356 20.9414 96.5503 21.7548 96.5503 22.7789C96.5503 23.8031 96.8356 24.624 97.4063 25.2415C97.9769 25.844 98.7012 26.1452 99.5792 26.1452Z" fill="#2B3238"></path><path d="M115.52 16.5208C116.983 16.5208 118.161 16.9727 119.054 17.8764C119.961 18.7801 120.414 20.1206 120.414 21.8978V28.8564H116.99V22.4401C116.99 21.4761 116.786 20.7607 116.376 20.2938C115.966 19.8118 115.373 19.5708 114.598 19.5708C113.735 19.5708 113.047 19.8494 112.535 20.4067C112.023 20.9489 111.767 21.7623 111.767 22.8467V28.8564H108.343V16.7015H111.613V18.1249C112.067 17.6128 112.63 17.2212 113.303 16.9501C113.976 16.6639 114.715 16.5208 115.52 16.5208Z" fill="#2B3238"></path><path d="M135.024 16.7015L130.042 28.8564H126.508L121.548 16.7015H125.081L128.352 24.9704L131.732 16.7015H135.024Z" fill="#2B3238"></path><path d="M142.048 26.213C142.662 26.213 143.204 26.1227 143.672 25.9419C144.155 25.7461 144.601 25.4449 145.011 25.0382L146.833 27.0715C145.721 28.3819 144.096 29.0371 141.96 29.0371C140.629 29.0371 139.451 28.7735 138.426 28.2464C137.402 27.7041 136.612 26.9586 136.056 26.0097C135.5 25.0608 135.222 23.9839 135.222 22.7789C135.222 21.5891 135.493 20.5197 136.034 19.5708C136.59 18.6068 137.344 17.8613 138.295 17.3341C139.26 16.7919 140.343 16.5208 141.543 16.5208C142.67 16.5208 143.694 16.7693 144.616 17.2664C145.538 17.7483 146.269 18.4562 146.811 19.3901C147.367 20.3088 147.645 21.4008 147.645 22.666L138.909 24.4056C139.158 25.0081 139.546 25.4599 140.072 25.7612C140.614 26.0624 141.272 26.213 142.048 26.213ZM141.543 19.1867C140.68 19.1867 139.977 19.4729 139.436 20.0452C138.895 20.6176 138.609 21.4083 138.58 22.4175L144.33 21.2652C144.17 20.6327 143.84 20.1281 143.343 19.7515C142.845 19.375 142.245 19.1867 141.543 19.1867Z" fill="#2B3238"></path><path d="M153.217 18.3056C153.626 17.7182 154.175 17.2739 154.863 16.9727C155.565 16.6714 156.37 16.5208 157.277 16.5208V19.7741C156.897 19.744 156.641 19.7289 156.509 19.7289C155.528 19.7289 154.76 20.0151 154.204 20.5875C153.648 21.1447 153.37 21.9882 153.37 23.1178V28.8564H149.946V16.7015H153.217V18.3056Z" fill="#2B3238"></path><path d="M163.328 29.0371C162.348 29.0371 161.39 28.9166 160.453 28.6756C159.517 28.4196 158.771 28.1033 158.214 27.7267L159.356 25.1964C159.883 25.5428 160.519 25.8289 161.265 26.0549C162.012 26.2657 162.743 26.3712 163.46 26.3712C164.909 26.3712 165.633 26.0022 165.633 25.2641C165.633 24.9177 165.436 24.6692 165.04 24.5186C164.645 24.368 164.038 24.2399 163.219 24.1345C162.253 23.9839 161.456 23.8107 160.826 23.6149C160.197 23.4191 159.648 23.0727 159.18 22.5756C158.727 22.0786 158.5 21.3707 158.5 20.4519C158.5 19.6838 158.712 19.006 159.136 18.4186C159.575 17.8161 160.204 17.3492 161.024 17.0178C161.858 16.6865 162.838 16.5208 163.965 16.5208C164.799 16.5208 165.626 16.6187 166.445 16.8145C167.279 16.9952 167.967 17.2513 168.508 17.5827L167.367 20.0904C166.328 19.488 165.194 19.1867 163.965 19.1867C163.233 19.1867 162.685 19.2922 162.319 19.503C161.953 19.7139 161.77 19.985 161.77 20.3164C161.77 20.6929 161.968 20.9565 162.363 21.1071C162.758 21.2577 163.387 21.4008 164.25 21.5364C165.216 21.702 166.006 21.8828 166.621 22.0786C167.235 22.2593 167.769 22.5982 168.223 23.0952C168.677 23.5923 168.903 24.2851 168.903 25.1738C168.903 25.9268 168.684 26.5971 168.245 27.1845C167.806 27.7719 167.162 28.2313 166.313 28.5627C165.479 28.8789 164.484 29.0371 163.328 29.0371Z" fill="#2B3238"></path><path d="M183 16.7015V28.8564H179.73V27.4556C178.881 28.5099 177.652 29.0371 176.042 29.0371C174.93 29.0371 173.92 28.781 173.013 28.2689C172.121 27.7569 171.418 27.0264 170.906 26.0775C170.394 25.1286 170.138 24.0291 170.138 22.7789C170.138 21.5288 170.394 20.4293 170.906 19.4804C171.418 18.5315 172.121 17.801 173.013 17.2889C173.92 16.7768 174.93 16.5208 176.042 16.5208C177.549 16.5208 178.727 17.0103 179.576 17.9893V16.7015H183ZM176.635 26.1452C177.498 26.1452 178.215 25.844 178.786 25.2415C179.356 24.624 179.642 23.8031 179.642 22.7789C179.642 21.7548 179.356 20.9414 178.786 20.3389C178.215 19.7214 177.498 19.4127 176.635 19.4127C175.757 19.4127 175.033 19.7214 174.462 20.3389C173.891 20.9414 173.606 21.7548 173.606 22.7789C173.606 23.8031 173.891 24.624 174.462 25.2415C175.033 25.844 175.757 26.1452 176.635 26.1452Z" fill="#2B3238"></path></svg>